<mxfile host="app.diagrams.net" modified="2023-08-08T08:16:00.453Z" agent="Mozilla/5.0 (Windows NT 10.0; Win64; x64) AppleWebKit/537.36 (KHTML, like Gecko) Chrome/115.0.0.0 Safari/537.36" etag="WHUAZjKHmdZR3BxQiyND" version="21.5.1" type="device">
  <diagram name="Trang-1" id="muUcK1KXVwv8Et5flis_">
    <mxGraphModel dx="819" dy="429" grid="1" gridSize="10" guides="1" tooltips="1" connect="1" arrows="1" fold="1" page="1" pageScale="1" pageWidth="850" pageHeight="1100" math="0" shadow="0">
      <root>
        <mxCell id="0" />
        <mxCell id="1" parent="0" />
        <mxCell id="4WQKR08V7tv_h3dwO6Cl-1" value="Hàng ghế" style="rounded=0;whiteSpace=wrap;html=1;" parent="1" vertex="1">
          <mxGeometry x="150" y="320" width="190" height="140" as="geometry" />
        </mxCell>
        <mxCell id="4WQKR08V7tv_h3dwO6Cl-3" value="" style="shape=cylinder3;whiteSpace=wrap;html=1;boundedLbl=1;backgroundOutline=1;size=15;" parent="1" vertex="1">
          <mxGeometry x="350" y="120" width="185" height="110" as="geometry" />
        </mxCell>
        <mxCell id="4WQKR08V7tv_h3dwO6Cl-5" value="Store (index)" style="text;html=1;strokeColor=none;fillColor=none;align=center;verticalAlign=middle;whiteSpace=wrap;rounded=0;" parent="1" vertex="1">
          <mxGeometry x="398.75" y="120" width="87.5" height="30" as="geometry" />
        </mxCell>
        <mxCell id="4WQKR08V7tv_h3dwO6Cl-6" value="" style="rounded=0;whiteSpace=wrap;html=1;" parent="1" vertex="1">
          <mxGeometry x="360" y="160" width="170" height="60" as="geometry" />
        </mxCell>
        <mxCell id="4WQKR08V7tv_h3dwO6Cl-7" value="seatReducer" style="rounded=1;whiteSpace=wrap;html=1;fillColor=#a20025;strokeColor=#6F0000;fontColor=#ffffff;" parent="1" vertex="1">
          <mxGeometry x="370" y="190" width="80" height="20" as="geometry" />
        </mxCell>
        <mxCell id="4WQKR08V7tv_h3dwO6Cl-8" value="rootReducer" style="text;html=1;strokeColor=none;fillColor=none;align=center;verticalAlign=middle;whiteSpace=wrap;rounded=0;" parent="1" vertex="1">
          <mxGeometry x="412.5" y="160" width="60" height="30" as="geometry" />
        </mxCell>
        <mxCell id="4WQKR08V7tv_h3dwO6Cl-9" value="Chọn ghế" style="rounded=1;whiteSpace=wrap;html=1;" parent="1" vertex="1">
          <mxGeometry x="160" y="420" width="50" height="30" as="geometry" />
        </mxCell>
        <mxCell id="4WQKR08V7tv_h3dwO6Cl-10" value="Chọn ghế" style="rounded=1;whiteSpace=wrap;html=1;" parent="1" vertex="1">
          <mxGeometry x="220" y="420" width="50" height="30" as="geometry" />
        </mxCell>
        <mxCell id="4WQKR08V7tv_h3dwO6Cl-11" value="Chọn ghế" style="rounded=1;whiteSpace=wrap;html=1;" parent="1" vertex="1">
          <mxGeometry x="280" y="420" width="50" height="30" as="geometry" />
        </mxCell>
        <mxCell id="4WQKR08V7tv_h3dwO6Cl-13" value="" style="rounded=0;whiteSpace=wrap;html=1;" parent="1" vertex="1">
          <mxGeometry x="500" y="320" width="220" height="130" as="geometry" />
        </mxCell>
        <mxCell id="4WQKR08V7tv_h3dwO6Cl-14" value="Số ghế" style="text;html=1;strokeColor=none;fillColor=none;align=center;verticalAlign=middle;whiteSpace=wrap;rounded=0;" parent="1" vertex="1">
          <mxGeometry x="510" y="350" width="60" height="30" as="geometry" />
        </mxCell>
        <mxCell id="4WQKR08V7tv_h3dwO6Cl-15" value="Giá" style="text;html=1;strokeColor=none;fillColor=none;align=center;verticalAlign=middle;whiteSpace=wrap;rounded=0;" parent="1" vertex="1">
          <mxGeometry x="580" y="350" width="60" height="30" as="geometry" />
        </mxCell>
        <mxCell id="4WQKR08V7tv_h3dwO6Cl-16" value="Hủy" style="text;html=1;strokeColor=none;fillColor=none;align=center;verticalAlign=middle;whiteSpace=wrap;rounded=0;" parent="1" vertex="1">
          <mxGeometry x="650" y="350" width="60" height="30" as="geometry" />
        </mxCell>
      </root>
    </mxGraphModel>
  </diagram>
</mxfile>
